<svg id="Layer_1" data-name="Layer 1" xmlns="http://www.w3.org/2000/svg" viewBox="0 0 433.99 266.69"><defs><style>.cls-1{fill:#27348b;}.cls-2{fill:#ea5b0c;}.cls-3{fill:#878787;}.cls-4{fill:#5f5f5f;}.cls-5{fill:#fefefe;}</style></defs><path class="cls-1" d="M440,219.69h.45A41.6,41.6,0,0,1,455.21,223v-3.53h16.51v52.89h8.52v16.92h-8.52v6q0,15-5,22.77-5.18,8.06-16.05,8.06H440.16v-17h7.07c2.78,0,4.69-1.1,5.72-3.32q2.35-3.63,1.72-13.3V249.3q-.27-6-3.81-9.07A12.87,12.87,0,0,0,443,237a27.18,27.18,0,0,0-4.08-.1,18.83,18.83,0,0,0-6.3,2,11.3,11.3,0,0,0-5.89,6.79,26,26,0,0,0-1.77,8.72,32.59,32.59,0,0,0,1.27,8.86,9.94,9.94,0,0,0,5.85,6.6,22.16,22.16,0,0,0,7.11,2.22c1.7.1,3.3.15,4.81.15h8.52v17H439.16a33.2,33.2,0,0,1-12.87-2.42,23.19,23.19,0,0,1-9.34-6.8A40.26,40.26,0,0,1,411.06,270q-2.37-5.74-2.36-14.61,0-9.36,2-15a39.3,39.3,0,0,1,5.76-10.63,22.77,22.77,0,0,1,8.75-7.25Q430.18,220.18,440,219.69Z" transform="translate(-231.77 -108.08)"/><path class="cls-1" d="M480,272.37h40v16.92H480Z" transform="translate(-231.77 -108.08)"/><path class="cls-1" d="M591.4,219.28h17.05v37.27q0,7.67,1.72,12,1.46,3.33,3.81,3.58l2.45.25H617v16.92h-1.72q-9.88-.41-15-4.63-5.72,3.93-16.78,4.73-11.42-.9-16-4.73-4.71,3.93-16.86,4.73-10.78-.7-15.69-4.73-4.8,4-15.23,4.73v-17a7.54,7.54,0,0,0,5-3.83q1.35-2.82,1.72-11.69v-37h16.77v37q.38,8.16,1.82,11.69,1.26,2.93,3.44,3.43a15.6,15.6,0,0,0,4.49.35q2.31-.15,4.31-3.78,1.73-4.34,1.72-11.69v-37h17v37q0,8.07,1,10.63a7.28,7.28,0,0,0,3.45,3.88,7.47,7.47,0,0,0,5.89.25,5.88,5.88,0,0,0,4.31-4.23q.87-3.17.86-11.94V219.28Z" transform="translate(-231.77 -108.08)"/><path class="cls-1" d="M616.88,289.29V272.37a6.12,6.12,0,0,0,5.9-3.33q1.35-3.32,1.81-11.58V168.72h16.68v91q-.72,14.9-5,21.65a18.27,18.27,0,0,1-6.44,5.85Q625.13,289.29,616.88,289.29Z" transform="translate(-231.77 -108.08)"/><path class="cls-1" d="M665.75,168.72V289.29h-17V168.72Z" transform="translate(-231.77 -108.08)"/><path class="cls-2" d="M382.76,181.45a10.37,10.37,0,0,1,2.45-6.85,7.42,7.42,0,0,1,5.81-2.92,6.64,6.64,0,0,1,5.38,2.77,11.82,11.82,0,0,1-.12,13.9,6.84,6.84,0,0,1-11.15,0A10.47,10.47,0,0,1,382.76,181.45Zm-82.89,43.68a28,28,0,0,1,16.88-5h13.6V237h-9.3a47.38,47.38,0,0,0-7.79,1c-3.47.64-5.94,2-7.4,4.13a13.4,13.4,0,0,0-2.54,5.84,55.7,55.7,0,0,0-.35,6.9,25.42,25.42,0,0,0,1.16,7.76,12.83,12.83,0,0,0,3.45,5.69,13,13,0,0,0,5.38,2.92,41.44,41.44,0,0,0,8.35,1.16H378a56.4,56.4,0,0,0,6-.51c2.78-.33,4.66-1.46,5.64-3.37a17.71,17.71,0,0,0,1.46-7.91V231.07q-.85-8.06-4-12t-11.41-3.93q-8.52,0-12.27,4.59t-3.74,12.94a15.87,15.87,0,0,0,3.7,10.68q3.71,4.33,12.31,4.33,8.36,0,13.26-7.66v18.54q-6.37,5.74-13.26,5.74-12.13,0-18.46-4.84a25.33,25.33,0,0,1-8.83-12,45.66,45.66,0,0,1-2.5-15.11q0-16.42,8.23-26.29t21.56-9.87q13.35,0,21.27,9t8.61,25.89v29.71q-.78,12-4.31,18.08t-8.31,8.42q-4.77,2.31-12.35,2H316.75q-8.26,0-12.92-2.37a28.14,28.14,0,0,1-8.56-6.9,30.22,30.22,0,0,1-5.94-11,49.53,49.53,0,0,1-2-14.75,53.13,53.13,0,0,1,2.46-16.07A24.58,24.58,0,0,1,299.87,225.13Zm63.74-44.23a10.28,10.28,0,0,1,2.45-6.85,7.37,7.37,0,0,1,5.81-2.92,6.63,6.63,0,0,1,5.38,2.77,11.8,11.8,0,0,1-.13,13.9,6.85,6.85,0,0,1-11.15,0A10.5,10.5,0,0,1,363.61,180.9Z" transform="translate(-231.77 -108.08)"/><path class="cls-1" d="M270.52,159.11q-1.17,27.84-2.35,55.66c-.05,1.16,0,2.31,0,3.47a2.9,2.9,0,0,1,.83,2.11c-1.36,12-.76,24-1.48,36-.1,1.82-.37,3.61-.44,5.43a2.64,2.64,0,0,1-.86,2.12l-2,45c-.38,8.75-.71,17.5-1.14,26.25-.1,2,.05,2.76,2,2.31a596.57,596.57,0,0,1,70.77-11.89c20.69-2.28,41.42-3.89,62.21-4.22a37.31,37.31,0,0,1,5.79-.16c.34,0,.64.09.6.66-40.11,2.86-79.76,10-119.14,19.74-10.38,2.57-20.74,5.32-31,8.45-1.24.38-2,.09-2.93-1.11-5-6.67-10.91-11.51-18.35-12.78-1.43-.25-1.22-1.21-1.06-2.44q3.15-23.61,6.26-47.22,7.05-53.33,14.09-106.67l4-30.34c.13-1,.09-1.9,1.36-1.75,4.66.56,9.33.94,14,1.43,3,.32,5.93.71,8.89,1.06.27,0-.06,0,.19.09,1.06.47,2.62-.75,3.2,1.06a12.79,12.79,0,0,1,.08,6.33c-.24,1.26-1.15,1.15-1.95,1.15h-9.51A3.87,3.87,0,0,0,270.52,159.11Z" transform="translate(-231.77 -108.08)"/><path class="cls-2" d="M480.71,329.82a456.32,456.32,0,0,0-72.15,4.31C356.62,341.25,305.8,355,255.89,374.24c-2.37.92-2.37.91-2.3-2.27.07-2.64.22-5.29.15-7.93-.05-1.86.54-2.58,1.92-3,13.27-4.31,26.64-8,40.08-11.34q37.5-9.29,75.49-14.74c30.35-4.36,60.77-7.07,91.34-6.45,6.41.12,12.83.57,19.24.86C481.76,330.63,481.13,329.87,480.71,329.82Z" transform="translate(-231.77 -108.08)"/><path class="cls-2" d="M270.52,159.11c2.84-1,5.75-.36,8.62-.44,4.2-.13,4.77-1,4.09-6.28-.29-2.24-1.9-1.29-2.76-2.1,2,.42,2.64-.53,2.67-3.18.22-20.77,12.58-36.93,29.56-38.88,15.32-1.76,30,12.34,33.14,31.84a54.3,54.3,0,0,1,.54,10.36,39,39,0,0,0,.12,7.17c.54,1.3,1.95-.19,2.47,1.19-2.27-.17-2.84,1.25-2.71,3.91.19,3.54.08,7.11,0,10.66a4.29,4.29,0,0,0,1.25,3.37,8.73,8.73,0,0,1,.56,11,5.24,5.24,0,0,1-8.7.06,8.74,8.74,0,0,1,.59-11.17,3.91,3.91,0,0,0,1.24-3.11q-.09-6.07,0-12.16c0-1.63-.34-2.39-1.78-2.39q-24.63.06-49.26,0c-1.32,0-1.92.5-1.89,2.27.07,4.22.05,8.44,0,12.66a3.46,3.46,0,0,0,1.1,2.68,8.9,8.9,0,0,1,.72,11.2,5.32,5.32,0,0,1-8.73,0,8.75,8.75,0,0,1,.6-11.17,3.65,3.65,0,0,0,1.23-2.87c-.06-4.21-.05-8.43,0-12.65,0-1.44-.35-2.15-1.58-2.12C277.93,159.06,274.23,159.07,270.52,159.11Z" transform="translate(-231.77 -108.08)"/><path class="cls-3" d="M404.38,321.92c-2.1-.89-4.28-.07-6.39-.5,4.53-.67,9.08-.36,13.63-.22A28.13,28.13,0,0,1,404.38,321.92Z" transform="translate(-231.77 -108.08)"/><path class="cls-4" d="M349,158.79c-.78-.54-2.12.73-2.47-1.19l9,.84,0,.35Z" transform="translate(-231.77 -108.08)"/><path class="cls-5" d="M252.52,341.81a21.75,21.75,0,0,0-4.34-4.48c-1-.73-.71-1.86-.66-2.88q.87-17.46,1.76-34.92.67-13.25,1.35-26.49a5.63,5.63,0,0,0-.28-2.26q-1.62,10.41-3.25,20.8-3,19.13-5.95,38.23c-.12.75.08,2.19-1.1,1.67-1-.42-2.53-.08-2.22-2.56,1.09-8.91,2.07-17.84,3.1-26.76q4.65-40.52,9.32-81,3.85-33.65,7.73-67.28c.12-1-.27-2.61,1.36-2.74,2.45-.21,2.63-.14,2.48,2.93q-1.92,40.5-3.88,81l-2.88,60.43q-1,22.43-2.11,44.83A1.88,1.88,0,0,1,252.52,341.81Z" transform="translate(-231.77 -108.08)"/><path class="cls-5" d="M288.45,151.18c-.79-3-.33-5.92,0-8.84,2-16.63,14.46-28.93,27.92-27.78,13.69,1.17,24.53,15.06,24.9,31.93.05,2.4-.19,4.81-.05,7.19s-.41,3.46-2.37,3.07a1.63,1.63,0,0,1-1.9.9c-9.28-.88-18.54-2-27.81-3-6.18-.67-12.37-1.22-18.53-2.15C289.82,152.34,288.87,152.42,288.45,151.18Z" transform="translate(-231.77 -108.08)"/><path class="cls-1" d="M288.45,151.18c10.16,1.09,20.31,2.16,30.46,3.28,6.66.73,13.31,1.52,20,2.29.56.67,2,.07,1.9,1.18s-1.45.68-2.25.68q-23.7,0-47.39,0c-2.63,0-2.75-.1-2.71-3.29C288.44,154,288,152.56,288.45,151.18Z" transform="translate(-231.77 -108.08)"/><path class="cls-1" d="M488.73,298.61a3.83,3.83,0,0,1,1.87.42,4.38,4.38,0,0,1,1.5,1.63l9.72,16.17a.5.5,0,0,1,.07.44q-.08.18-.42.18h-3.73a.7.7,0,0,1-.68-.35L495,313.63h-13.8l-2,3.47a.74.74,0,0,1-.68.35h-3.82q-.37,0-.45-.18a.5.5,0,0,1,.07-.44l9.63-16.17a4.67,4.67,0,0,1,1.44-1.63,3.15,3.15,0,0,1,1.64-.42Zm-5.7,11.9h10.1l-4.67-7.89a.38.38,0,0,0-.32-.19H488a.38.38,0,0,0-.32.19Z" transform="translate(-231.77 -108.08)"/><path class="cls-1" d="M512.8,298.61c.43,0,.64.2.64.6v10.73a7.37,7.37,0,0,0,.19,1.79,2.32,2.32,0,0,0,.64,1.13,2.44,2.44,0,0,0,1.18.59,8.38,8.38,0,0,0,1.9.18h11.89c.43,0,.64.2.64.59v2.64c0,.39-.21.59-.64.59H517.17a16.26,16.26,0,0,1-3.78-.38,6,6,0,0,1-2.54-1.22,4.85,4.85,0,0,1-1.44-2.21,10.2,10.2,0,0,1-.46-3.29V299.21c0-.4.23-.6.68-.6Z" transform="translate(-231.77 -108.08)"/><path class="cls-1" d="M558.8,298.61c.43,0,.65.2.65.6v2.55c0,.4-.22.59-.65.59H544.09a1.52,1.52,0,0,0-1.2.41,1.63,1.63,0,0,0-.35,1.1v.92a1.34,1.34,0,0,0,1.52,1.5h11a5.47,5.47,0,0,1,3.85,1.2,4.45,4.45,0,0,1,1.29,3.43v2.15a4.22,4.22,0,0,1-1.26,3.18,5.56,5.56,0,0,1-3.94,1.21H538.75c-.45,0-.68-.2-.68-.59V314.3c0-.39.23-.59.68-.59h15.41a1.58,1.58,0,0,0,1.21-.4,1.66,1.66,0,0,0,.35-1.11v-1.1a1.34,1.34,0,0,0-1.53-1.51h-11a5.46,5.46,0,0,1-3.84-1.2,4.43,4.43,0,0,1-1.29-3.43v-2a4.22,4.22,0,0,1,1.26-3.18,5.54,5.54,0,0,1,3.93-1.21Z" transform="translate(-231.77 -108.08)"/><path class="cls-1" d="M586.48,298.61a16.07,16.07,0,0,1,3.81.39,6.15,6.15,0,0,1,2.55,1.24,4.87,4.87,0,0,1,1.43,2.19,10.83,10.83,0,0,1,.44,3.29v4.63a10.83,10.83,0,0,1-.44,3.29,4.83,4.83,0,0,1-1.43,2.21,6,6,0,0,1-2.55,1.22,16.66,16.66,0,0,1-3.81.38h-9.07a16.32,16.32,0,0,1-3.78-.38,6,6,0,0,1-2.54-1.22,4.85,4.85,0,0,1-1.44-2.21,10.48,10.48,0,0,1-.46-3.29v-4.63a10.48,10.48,0,0,1,.46-3.29,4.89,4.89,0,0,1,1.44-2.19,6.11,6.11,0,0,1,2.54-1.24,15.74,15.74,0,0,1,3.78-.39Zm-12.79,11.44a6.76,6.76,0,0,0,.19,1.76,2.23,2.23,0,0,0,.63,1.13,2.43,2.43,0,0,0,1.19.59,8.29,8.29,0,0,0,1.89.18h8.72a8.29,8.29,0,0,0,1.89-.18,2.43,2.43,0,0,0,1.19-.59,2.23,2.23,0,0,0,.63-1.13,6.76,6.76,0,0,0,.19-1.76v-4a6.81,6.81,0,0,0-.19-1.76,2.28,2.28,0,0,0-.63-1.13,2.52,2.52,0,0,0-1.19-.59,8.29,8.29,0,0,0-1.89-.18h-8.72a8.29,8.29,0,0,0-1.89.18,2.52,2.52,0,0,0-1.19.59,2.28,2.28,0,0,0-.63,1.13,6.81,6.81,0,0,0-.19,1.76Z" transform="translate(-231.77 -108.08)"/><path class="cls-1" d="M608,298.61c.43,0,.65.2.65.6v10.73a6.9,6.9,0,0,0,.19,1.79,2.39,2.39,0,0,0,.63,1.13,2.48,2.48,0,0,0,1.19.59,8.29,8.29,0,0,0,1.89.18h8.14a8.29,8.29,0,0,0,1.89-.18,2.43,2.43,0,0,0,1.19-.59,2.3,2.3,0,0,0,.62-1.13,8,8,0,0,0,.17-1.79V299.21c0-.4.22-.6.65-.6h3.2c.43,0,.64.2.64.6v11.14a10.52,10.52,0,0,1-.44,3.29,4.81,4.81,0,0,1-1.42,2.21,6.05,6.05,0,0,1-2.56,1.22,16.5,16.5,0,0,1-3.8.38h-8.45a16.41,16.41,0,0,1-3.79-.38,6,6,0,0,1-2.54-1.22,5,5,0,0,1-1.44-2.21,10.5,10.5,0,0,1-.45-3.29V299.21c0-.4.22-.6.67-.6Z" transform="translate(-231.77 -108.08)"/><path class="cls-1" d="M655.83,298.61a16,16,0,0,1,3.8.39,6.09,6.09,0,0,1,2.55,1.24,4.87,4.87,0,0,1,1.43,2.19,10.83,10.83,0,0,1,.44,3.29v4.17a7.76,7.76,0,0,1-1.34,4.94,6.46,6.46,0,0,1-4.45,2l3.38,4.27a.48.48,0,0,1,.07.41q0,.27-.45.27H657.5a.83.83,0,0,1-.82-.33L653.3,317h-6.54a15.88,15.88,0,0,1-3.79-.38,5.86,5.86,0,0,1-2.54-1.22,4.8,4.8,0,0,1-1.44-2.21,10.5,10.5,0,0,1-.45-3.29v-4.17a10.5,10.5,0,0,1,.45-3.29,4.89,4.89,0,0,1,1.44-2.19A6.11,6.11,0,0,1,643,299a15.83,15.83,0,0,1,3.79-.39Zm-12.8,11a6.76,6.76,0,0,0,.19,1.76,2.26,2.26,0,0,0,.63,1.13,2.53,2.53,0,0,0,1.19.6,9,9,0,0,0,1.89.17h8.72a8.91,8.91,0,0,0,1.89-.17,2.53,2.53,0,0,0,1.19-.6,2.19,2.19,0,0,0,.63-1.13,6.72,6.72,0,0,0,.2-1.76V306a6.77,6.77,0,0,0-.2-1.76,2.28,2.28,0,0,0-.63-1.13,2.52,2.52,0,0,0-1.19-.59,8.23,8.23,0,0,0-1.89-.18h-8.72a8.29,8.29,0,0,0-1.89.18,2.52,2.52,0,0,0-1.19.59,2.36,2.36,0,0,0-.63,1.13A6.81,6.81,0,0,0,643,306Z" transform="translate(-231.77 -108.08)"/></svg>